HIERARCHY
ROOT Root
{
  OFFSET 0.0 0.0 0.0
  CHANNELS 6 Xposition Yposition Zposition Zrotation Yrotation Xrotation
  JOINT Hips
  {
    OFFSET 0.0 100.0 0.0
    CHANNELS 6 Xposition Yposition Zposition Zrotation Yrotation Xrotation
    JOINT Spine1
    {
      OFFSET 5.003913 -0.037094 -0.013727
      CHANNELS 3 Zrotation Yrotation Xrotation
      JOINT Spine2
      {
        OFFSET 7.125363 -1e-06 0.0
        CHANNELS 3 Zrotation Yrotation Xrotation
        JOINT Chest
        {
          OFFSET 7.594027 1e-06 0.0
          CHANNELS 3 Zrotation Yrotation Xrotation
          JOINT Neck1
          {
            OFFSET 26.313086 -0.460272 -0.181672
            CHANNELS 3 Zrotation Yrotation Xrotation
            JOINT Neck2
            {
              OFFSET 8.045911 0.0 0.0
              CHANNELS 3 Zrotation Yrotation Xrotation
              JOINT Head
              {
                OFFSET 6.432774 0.0 0.0
                CHANNELS 3 Zrotation Yrotation Xrotation
                JOINT HeadEnd
                {
                  OFFSET 16.169773 0.06451 0.00362
                  CHANNELS 3 Zrotation Yrotation Xrotation
                }
                JOINT Jaw
                {
                  OFFSET 0.108741 3.12938 0.002639
                  CHANNELS 3 Zrotation Yrotation Xrotation
                }
                JOINT LeftEye
                {
                  OFFSET 4.45173 8.166359 3.206392
                  CHANNELS 3 Zrotation Yrotation Xrotation
                }
                JOINT RightEye
                {
                  OFFSET 4.436895 8.135758 -3.222429
                  CHANNELS 3 Zrotation Yrotation Xrotation
                }
              }
            }
          }
          JOINT LeftShoulder
          {
            OFFSET 23.218927 5.195579 1.621656
            CHANNELS 3 Zrotation Yrotation Xrotation
            JOINT LeftArm
            {
              OFFSET 15.902118 2e-06 -2e-06
              CHANNELS 3 Zrotation Yrotation Xrotation
              JOINT LeftForeArm
              {
                OFFSET 28.739307 0.0 -1e-06
                CHANNELS 3 Zrotation Yrotation Xrotation
                JOINT LeftHand
                {
                  OFFSET 27.093981 -4e-06 0.0
                  CHANNELS 3 Zrotation Yrotation Xrotation
                  JOINT LeftHandThumb1
                  {
                    OFFSET 2.276781 3.380274 0.83384
                    CHANNELS 3 Zrotation Yrotation Xrotation
                    JOINT LeftHandThumb2
                    {
                      OFFSET 4.705309 -1e-06 -1e-06
                      CHANNELS 3 Zrotation Yrotation Xrotation
                      JOINT LeftHandThumb3
                      {
                        OFFSET 2.798515 0.0 3e-06
                        CHANNELS 3 Zrotation Yrotation Xrotation
                        JOINT LeftHandThumbEnd
                        {
                          OFFSET 3.180793 4e-06 -4e-06
                          CHANNELS 3 Zrotation Yrotation Xrotation
                        }
                      }
                    }
                  }
                  JOINT LeftHandIndex1
                  {
                    OFFSET 3.247786 2.352677 0.137192
                    CHANNELS 3 Zrotation Yrotation Xrotation
                    JOINT LeftHandIndex2
                    {
                      OFFSET 6.367095 1e-06 0.0
                      CHANNELS 3 Zrotation Yrotation Xrotation
                      JOINT LeftHandIndex3
                      {
                        OFFSET 3.662364 0.0 0.0
                        CHANNELS 3 Zrotation Yrotation Xrotation
                        JOINT LeftHandIndex4
                        {
                          OFFSET 2.329242 4e-06 -4e-06
                          CHANNELS 3 Zrotation Yrotation Xrotation
                          JOINT LeftHandIndexEnd
                          {
                            OFFSET 2.767823 1e-06 0.0
                            CHANNELS 3 Zrotation Yrotation Xrotation
                          }
                        }
                      }
                    }
                  }
                  JOINT LeftHandMiddle1
                  {
                    OFFSET 3.163612 0.945023 -0.406112
                    CHANNELS 3 Zrotation Yrotation Xrotation
                    JOINT LeftHandMiddle2
                    {
                      OFFSET 6.276789 3e-06 0.0
                      CHANNELS 3 Zrotation Yrotation Xrotation
                      JOINT LeftHandMiddle3
                      {
                        OFFSET 4.35652 -1e-06 4e-06
                        CHANNELS 3 Zrotation Yrotation Xrotation
                        JOINT LeftHandMiddle4
                        {
                          OFFSET 2.996877 0.0 8e-06
                          CHANNELS 3 Zrotation Yrotation Xrotation
                          JOINT LeftHandMiddleEnd
                          {
                            OFFSET 2.323256 3e-06 -4e-06
                            CHANNELS 3 Zrotation Yrotation Xrotation
                          }
                        }
                      }
                    }
                  }
                  JOINT LeftHandRing1
                  {
                    OFFSET 2.882606 -0.309162 0.107445
                    CHANNELS 3 Zrotation Yrotation Xrotation
                    JOINT LeftHandRing2
                    {
                      OFFSET 6.033198 0.0 4e-06
                      CHANNELS 3 Zrotation Yrotation Xrotation
                      JOINT LeftHandRing3
                      {
                        OFFSET 4.350578 3e-06 0.0
                        CHANNELS 3 Zrotation Yrotation Xrotation
                        JOINT LeftHandRing4
                        {
                          OFFSET 2.651321 2e-06 -7e-06
                          CHANNELS 3 Zrotation Yrotation Xrotation
                          JOINT LeftHandRingEnd
                          {
                            OFFSET 1.937663 1e-06 -4e-06
                            CHANNELS 3 Zrotation Yrotation Xrotation
                          }
                        }
                      }
                    }
                  }
                  JOINT LeftHandPinky1
                  {
                    OFFSET 2.865315 -1.525436 0.575687
                    CHANNELS 3 Zrotation Yrotation Xrotation
                    JOINT LeftHandPinky2
                    {
                      OFFSET 5.54936 1e-06 -8e-06
                      CHANNELS 3 Zrotation Yrotation Xrotation
                      JOINT LeftHandPinky3
                      {
                        OFFSET 3.070974 0.0 -4e-06
                        CHANNELS 3 Zrotation Yrotation Xrotation
                        JOINT LeftHandPinky4
                        {
                          OFFSET 1.549672 1e-06 0.0
                          CHANNELS 3 Zrotation Yrotation Xrotation
                          JOINT LeftHandPinkyEnd
                          {
                            OFFSET 1.952123 0.0 0.0
                            CHANNELS 3 Zrotation Yrotation Xrotation
                          }
                        }
                      }
                    }
                  }
                }
              }
            }
          }
          JOINT RightShoulder
          {
            OFFSET 23.161716 5.296122 -1.380114
            CHANNELS 3 Zrotation Yrotation Xrotation
            JOINT RightArm
            {
              OFFSET -16.027195 -2e-06 1.1e-05
              CHANNELS 3 Zrotation Yrotation Xrotation
              JOINT RightForeArm
              {
                OFFSET -28.736639 4e-06 2e-06
                CHANNELS 3 Zrotation Yrotation Xrotation
                JOINT RightHand
                {
                  OFFSET -27.133619 6e-06 0.0
                  CHANNELS 3 Zrotation Yrotation Xrotation
                  JOINT RightHandThumb1
                  {
                    OFFSET -2.274328 -3.351035 -0.83067
                    CHANNELS 3 Zrotation Yrotation Xrotation
                    JOINT RightHandThumb2
                    {
                      OFFSET -4.703594 -3e-06 2e-06
                      CHANNELS 3 Zrotation Yrotation Xrotation
                      JOINT RightHandThumb3
                      {
                        OFFSET -2.794935 -4e-06 -3e-06
                        CHANNELS 3 Zrotation Yrotation Xrotation
                        JOINT RightHandThumbEnd
                        {
                          OFFSET -3.183852 4e-06 1e-06
                          CHANNELS 3 Zrotation Yrotation Xrotation
                        }
                      }
                    }
                  }
                  JOINT RightHandIndex1
                  {
                    OFFSET -3.253496 -2.33755 -0.127667
                    CHANNELS 3 Zrotation Yrotation Xrotation
                    JOINT RightHandIndex2
                    {
                      OFFSET -6.344434 0.0 0.0
                      CHANNELS 3 Zrotation Yrotation Xrotation
                      JOINT RightHandIndex3
                      {
                        OFFSET -3.654871 0.0 -8e-06
                        CHANNELS 3 Zrotation Yrotation Xrotation
                        JOINT RightHandIndex4
                        {
                          OFFSET -2.327586 -1e-06 0.0
                          CHANNELS 3 Zrotation Yrotation Xrotation
                          JOINT RightHandIndexEnd
                          {
                            OFFSET -2.770001 3e-06 8e-06
                            CHANNELS 3 Zrotation Yrotation Xrotation
                          }
                        }
                      }
                    }
                  }
                  JOINT RightHandMiddle1
                  {
                    OFFSET -3.168223 -0.944764 0.411762
                    CHANNELS 3 Zrotation Yrotation Xrotation
                    JOINT RightHandMiddle2
                    {
                      OFFSET -6.266691 -1e-06 -4e-06
                      CHANNELS 3 Zrotation Yrotation Xrotation
                      JOINT RightHandMiddle3
                      {
                        OFFSET -4.348901 0.0 0.0
                        CHANNELS 3 Zrotation Yrotation Xrotation
                        JOINT RightHandMiddle4
                        {
                          OFFSET -3.00024 2e-06 -4e-06
                          CHANNELS 3 Zrotation Yrotation Xrotation
                          JOINT RightHandMiddleEnd
                          {
                            OFFSET -2.321477 -4e-06 -4e-06
                            CHANNELS 3 Zrotation Yrotation Xrotation
                          }
                        }
                      }
                    }
                  }
                  JOINT RightHandRing1
                  {
                    OFFSET -2.885654 0.293261 -0.119232
                    CHANNELS 3 Zrotation Yrotation Xrotation
                    JOINT RightHandRing2
                    {
                      OFFSET -6.032835 -1e-06 -4e-06
                      CHANNELS 3 Zrotation Yrotation Xrotation
                      JOINT RightHandRing3
                      {
                        OFFSET -4.33881 0.0 -4e-06
                        CHANNELS 3 Zrotation Yrotation Xrotation
                        JOINT RightHandRing4
                        {
                          OFFSET -2.654903 -4e-06 -4e-06
                          CHANNELS 3 Zrotation Yrotation Xrotation
                          JOINT RightHandRingEnd
                          {
                            OFFSET -1.935122 0.0 4e-06
                            CHANNELS 3 Zrotation Yrotation Xrotation
                          }
                        }
                      }
                    }
                  }
                  JOINT RightHandPinky1
                  {
                    OFFSET -2.866241 1.503904 -0.60527
                    CHANNELS 3 Zrotation Yrotation Xrotation
                    JOINT RightHandPinky2
                    {
                      OFFSET -5.553177 -2e-06 0.0
                      CHANNELS 3 Zrotation Yrotation Xrotation
                      JOINT RightHandPinky3
                      {
                        OFFSET -3.062664 -1e-06 -4e-06
                        CHANNELS 3 Zrotation Yrotation Xrotation
                        JOINT RightHandPinky4
                        {
                          OFFSET -1.546529 2e-06 4e-06
                          CHANNELS 3 Zrotation Yrotation Xrotation
                          JOINT RightHandPinkyEnd
                          {
                            OFFSET -1.952341 0.0 -4e-06
                            CHANNELS 3 Zrotation Yrotation Xrotation
                          }
                        }
                      }
                    }
                  }
                }
              }
            }
          }
        }
      }
    }
    JOINT LeftLeg
    {
      OFFSET -8.443107 2.567604 10.043214
      CHANNELS 3 Zrotation Yrotation Xrotation
      JOINT LeftShin
      {
        OFFSET 43.229198 1e-06 -1e-06
        CHANNELS 3 Zrotation Yrotation Xrotation
        JOINT LeftFoot
        {
          OFFSET 42.298611 1e-06 1e-06
          CHANNELS 3 Zrotation Yrotation Xrotation
          JOINT LeftToeBase
          {
            OFFSET 14.165858 1e-06 0.0
            CHANNELS 3 Zrotation Yrotation Xrotation
            JOINT LeftToeEnd
            {
              OFFSET 6.7141 -0.234461 0.0
              CHANNELS 3 Zrotation Yrotation Xrotation
            }
          }
        }
      }
    }
    JOINT RightLeg
    {
      OFFSET -8.303923 2.592729 -10.047278
      CHANNELS 3 Zrotation Yrotation Xrotation
      JOINT RightShin
      {
        OFFSET -43.369682 0.0 1e-06
        CHANNELS 3 Zrotation Yrotation Xrotation
        JOINT RightFoot
        {
          OFFSET -42.260784 4e-06 2e-06
          CHANNELS 3 Zrotation Yrotation Xrotation
          JOINT RightToeBase
          {
            OFFSET -14.222245 -2e-06 -1e-06
            CHANNELS 3 Zrotation Yrotation Xrotation
            JOINT RightToeEnd
            {
              OFFSET -6.660062 0.232574 -2e-06
              CHANNELS 3 Zrotation Yrotation Xrotation
            }
          }
        }
      }
    }
  }
}
MOTION
Frames: 4
Frame Time: 0.03333333333333333
0.0 0.0 0.0 0.0 -0.0 0.0 -1.699096 90.156219 5.866448 90.657761 -10.121817 89.974243 8.909712 -0.743336 -0.183645 -6.049852 -0.703867 0.510043 22.030489 -0.392082 -0.627087 13.667852 5.86032 2.864855 -2.523307 -1.053071 -0.256201 -41.418034 0.614771 -1.83957 6e-06 0.0 -0.0 0.064052 -0.003777 0.124393 0.131311 -0.001769 0.142914 0.123032 -0.0068 0.105207 -66.557632 -87.459778 75.520096 56.410542 -50.556374 -52.94342 106.568863 0.406351 -0.625285 16.317686 11.838741 35.882671 17.636631 -26.322727 52.411201 -19.466665 -14.3956 29.410395 0.0 -8.774823 -1e-06 15.274643 -18.242239 6.526708 -0.609776 -1.795654 -3.88933 -4.80709 -11.046813 -2.93785 3e-06 -20.976021 -4e-06 -5.01997 -25.033562 -4.031883 5e-06 0.0 0.0 -10.634536 -5.686972 -3.565588 10.573275 -17.922955 -3.113899 -0.0 -13.82121 -2e-06 -0.50178 -31.181511 -4.027017 -11.870349 -59.168468 7.308607 -13.982718 -7.150199 -2.875041 13.772734 -8.401493 -3.218244 0.347734 -34.211559 0.77165 -0.963028 -17.733374 2.621018 -1e-06 -0.0 0.0 -17.346426 -20.095224 -4.201779 21.757566 -1.638374 3.866428 2e-06 -6.338824 0.0 -1.69759 -22.591749 -6.194007 -2e-06 -5e-06 -0.0 -27.535084 -82.422546 -139.977585 59.204769 -44.345406 -65.421059 124.16716 1.313236 0.344475 4.634418 -4.486537 42.504177 22.182121 -20.375887 49.933308 -16.701809 -16.743525 28.476521 -0.0 -12.6906 -2e-06 16.358419 -17.502043 2.205241 -0.105922 -1.513859 -4.275879 -5.039042 -5.612872 -2.953556 2e-06 -11.02052 -2e-06 -6.111299 -15.89533 -3.840472 1e-06 0.0 -1e-06 -10.283371 -5.68029 -4.341837 11.028289 -11.302402 -2.37263 -1.384272 -14.238577 -6.320122 -0.625442 -26.924183 -3.827598 -4.50012 -49.935825 -3.796602 -13.708527 -7.363476 -3.720938 18.141146 -14.052739 -3.24267 4e-06 -18.787266 -3e-06 -0.42971 -8.456044 2.555501 0.0 -1e-06 -1e-06 -15.923539 -20.094482 -5.473584 30.419207 -7.190825 1.735931 -2e-06 -8.162922 -3e-06 -1.861904 -22.861469 -6.167944 -0.0 -2e-06 0.0 138.103302 -6.044871 -3.938341 61.032242 -0.038247 0.071365 -93.783577 2.454445 -4.425118 -6.801313 1.546929 2.069772 -0.999998 -0.0 0.0 -49.552319 -8.322065 -4.355679 68.397377 -0.108719 0.254234 -78.83213 7.044146 -1.324411 -11.646563 0.826975 1.610598 -1.0 0.0 0.0 
0.0 0.0 0.0 0.0 -0.0 0.0 -1.551925 90.122047 5.997102 90.614265 -10.149488 90.066849 8.924171 -0.692873 -0.177124 -6.038634 -0.696327 0.526837 22.046921 -0.381487 -0.674406 13.572417 5.990319 2.892555 -2.540739 -1.078651 -0.284483 -41.254978 0.693862 -1.886299 5e-06 -0.0 -0.0 0.048028 -0.009732 0.122719 0.121144 -0.003041 0.138948 0.114663 -0.017267 0.104624 -64.304916 -87.483315 73.183746 56.397968 -50.400238 -53.094345 106.557617 0.475079 -0.642916 16.213146 11.798626 35.371964 17.636616 -26.322716 52.411182 -19.466656 -14.395597 29.410385 1e-06 -8.774821 -1e-06 15.340825 -18.198421 6.511951 -0.609776 -1.795653 -3.889324 -4.80709 -11.046809 -2.937852 1e-06 -20.976011 -4e-06 -5.019972 -25.033552 -4.031883 5e-06 1e-06 -0.0 -10.634531 -5.686971 -3.565588 10.57327 -17.922945 -3.1139 -1e-06 -13.821205 -2e-06 -0.501779 -31.181498 -4.027017 -11.845961 -59.328518 7.320464 -13.982712 -7.150199 -2.875041 13.772727 -8.401489 -3.218241 0.347732 -34.211544 0.771649 -0.963031 -17.733368 2.621016 -1e-06 -0.0 -0.0 -17.346422 -20.095217 -4.201779 21.757557 -1.638371 3.866427 1e-06 -6.338823 0.0 -1.697591 -22.591743 -6.194006 -1e-06 -4e-06 -1e-06 -27.096527 -82.402191 -140.39917 59.02916 -44.197826 -65.488846 124.110413 1.311687 0.32317 4.435717 -4.617063 41.963451 22.182116 -20.375889 49.933323 -16.701817 -16.743526 28.476534 -3e-06 -12.690602 -2e-06 16.545881 -17.48912 2.163142 -0.105917 -1.513858 -4.275878 -5.039043 -5.612875 -2.953556 3e-06 -11.020524 -4e-06 -6.111298 -15.895334 -3.840472 -0.0 -0.0 -1e-06 -10.283373 -5.68029 -4.341835 11.028296 -11.302407 -2.372633 -1.384269 -14.238583 -6.320124 -0.625434 -26.924194 -3.827602 -4.477472 -49.987267 -3.752622 -13.708527 -7.363477 -3.720937 18.14115 -14.052739 -3.242675 7e-06 -18.78727 -4e-06 -0.429711 -8.456045 2.555504 2e-06 -1e-06 -0.0 -15.923538 -20.09449 -5.473588 30.419218 -7.190827 1.735924 -1e-06 -8.162925 -2e-06 -1.861899 -22.861469 -6.167945 -3e-06 -2e-06 -1e-06 138.075668 -6.007676 -4.007874 61.206631 -0.023911 0.076711 -93.900726 2.563863 -4.373207 -6.800254 1.550022 2.079215 -0.999998 -0.0 -0.0 -49.5387 -8.492019 -4.403605 68.54702 -0.106353 0.240441 -78.852844 7.165043 -1.550522 -11.874456 0.810673 1.610611 -1.000001 -0.0 0.0 
0.0 0.0 0.0 0.0 -0.0 0.0 -1.384792 90.042999 6.067307 90.596748 -10.199036 90.179924 8.92059 -0.680988 -0.174207 -6.03425 -0.688129 0.502415 22.06353 -0.386036 -0.695187 13.4981 6.074812 2.912201 -2.56946 -1.079976 -0.356919 -41.17614 0.72814 -1.863068 6e-06 -0.0 0.0 0.041128 -0.011548 0.118134 0.100941 -0.003831 0.133192 0.098358 -0.020262 0.100005 -62.427109 -87.514221 71.228973 56.293659 -50.300655 -53.084229 106.584457 0.55027 -0.610439 16.119606 11.787234 34.820877 17.636631 -26.322721 52.411182 -19.466656 -14.395597 29.410385 1e-06 -8.774821 -1e-06 15.375063 -18.193361 6.517871 -0.609775 -1.795654 -3.889329 -4.80709 -11.046811 -2.93785 1e-06 -20.976015 -4e-06 -5.01997 -25.03356 -4.031882 7e-06 2e-06 -0.0 -10.634533 -5.686971 -3.565591 10.573272 -17.922949 -3.113901 1e-06 -13.821205 -2e-06 -0.501777 -31.181501 -4.027019 -11.893862 -59.443123 7.387801 -13.982712 -7.1502 -2.875041 13.772727 -8.401487 -3.218243 0.347731 -34.211544 0.771651 -0.963031 -17.73337 2.621016 -1e-06 1e-06 1e-06 -17.34642 -20.095221 -4.201782 21.757557 -1.638371 3.866425 1e-06 -6.338821 -1e-06 -1.697588 -22.591747 -6.19401 -1e-06 -4e-06 -1e-06 -26.916039 -82.360817 -140.598389 58.708179 -44.073254 -65.41539 124.097191 1.343331 0.30949 4.217905 -4.561515 41.643864 22.182108 -20.375887 49.933308 -16.701809 -16.743525 28.476521 -2e-06 -12.690597 -0.0 16.641966 -17.477348 2.145054 -0.10592 -1.513856 -4.275877 -5.03904 -5.612873 -2.953553 5e-06 -11.020519 -3e-06 -6.111294 -15.895328 -3.840472 0.0 -0.0 -1e-06 -10.283369 -5.680287 -4.341835 11.028291 -11.302402 -2.37263 -1.384269 -14.238575 -6.320123 -0.625438 -26.924183 -3.827597 -4.519219 -50.008102 -3.692492 -13.708519 -7.363474 -3.720937 18.141144 -14.052738 -3.242673 6e-06 -18.787266 -3e-06 -0.429709 -8.456043 2.555501 1e-06 -1e-06 -1e-06 -15.923534 -20.094482 -5.473584 30.419205 -7.190825 1.735927 -0.0 -8.162921 -4e-06 -1.861903 -22.861464 -6.167941 1e-06 -3e-06 -1e-06 137.950455 -5.903578 -4.053332 61.427574 -0.008971 0.076153 -94.080292 2.497374 -4.237356 -6.745439 1.55343 2.090751 -0.999999 0.0 -0.0 -49.645229 -8.740782 -4.456525 68.788628 -0.101279 0.23609 -78.879227 7.311557 -1.710017 -12.081504 0.797519 1.606459 -1.000002 -0.0 -0.0 
0.0 0.0 0.0 0.0 -0.0 0.0 -1.231801 89.950714 6.118379 90.568443 -10.259561 90.284363 8.921573 -0.684786 -0.17368 -6.039121 -0.679254 0.485598 22.067665 -0.376934 -0.698628 13.458454 6.104826 2.920749 -2.581848 -1.062384 -0.413568 -41.250256 0.755273 -1.824506 6e-06 -0.0 0.0 0.041175 -0.011081 0.113741 0.084556 -0.005562 0.128086 0.086817 -0.017948 0.095534 -61.396053 -87.547997 70.113029 56.153805 -50.239513 -53.034855 106.614998 0.52727 -0.578759 16.066069 11.758996 34.58036 17.636633 -26.322748 52.411228 -19.466665 -14.3956 29.410402 -1e-06 -8.774822 -3e-06 15.381501 -18.211575 6.529133 -0.609778 -1.795654 -3.889329 -4.807089 -11.046812 -2.93785 6e-06 -20.976021 -2e-06 -5.019969 -25.033566 -4.031881 6e-06 2e-06 0.0 -10.634537 -5.686971 -3.565589 10.573277 -17.922955 -3.1139 3e-06 -13.821211 0.0 -0.501777 -31.181507 -4.027015 -11.957243 -59.514862 7.439073 -13.982715 -7.150198 -2.875045 13.772732 -8.401493 -3.218238 0.347734 -34.211555 0.771657 -0.963032 -17.733372 2.62102 -1e-06 -1e-06 1e-06 -17.34642 -20.095217 -4.201785 21.757561 -1.638377 3.86643 2e-06 -6.338824 0.0 -1.697587 -22.591749 -6.194007 -1e-06 -4e-06 1e-06 -26.801588 -82.355072 -140.712875 58.389225 -43.992706 -65.370766 124.104263 1.338696 0.303805 4.001909 -4.40172 41.612167 22.182119 -20.375895 49.933319 -16.701811 -16.743528 28.47653 -2e-06 -12.690601 -2e-06 16.674768 -17.465294 2.129568 -0.105921 -1.513858 -4.27588 -5.039041 -5.612872 -2.953555 6e-06 -11.02052 -2e-06 -6.111296 -15.895332 -3.840471 1e-06 -0.0 -2e-06 -10.283369 -5.680288 -4.341837 11.028291 -11.302406 -2.37263 -1.38427 -14.238577 -6.320123 -0.62544 -26.924187 -3.827597 -4.539654 -50.019802 -3.663988 -13.708524 -7.363477 -3.720938 18.141146 -14.052739 -3.242674 9e-06 -18.78727 -3e-06 -0.429713 -8.456043 2.555503 -1e-06 -1e-06 -1e-06 -15.923536 -20.094482 -5.473585 30.419207 -7.190826 1.735927 1e-06 -8.162925 -3e-06 -1.861904 -22.861467 -6.167937 -2e-06 -3e-06 -1e-06 137.791092 -5.81919 -4.085764 61.663113 0.002026 0.063895 -94.286873 2.436645 -4.128065 -6.704939 1.558307 2.097449 -0.999999 -0.0 -0.0 -49.757523 -8.938087 -4.488812 68.985558 -0.099289 0.224177 -79.023819 7.380515 -1.817973 -12.151178 0.783888 1.602701 -1.000002 -0.0 0.0 
